<svg width="1200" height="760" viewBox="0 0 1200 760" fill="none" xmlns="http://www.w3.org/2000/svg">
  <rect width="1200" height="760" fill="#f7f2ea"/>
  <rect x="0" y="0" width="1200" height="86" fill="#111827"/>
  <circle cx="70" cy="43" r="28" fill="#f6c453"/>
  <text x="64" y="52" font-family="Arial, sans-serif" font-size="26" font-weight="700" fill="#111827">B</text>
  <text x="112" y="39" font-family="Arial, sans-serif" font-size="26" font-weight="700" fill="#ffffff">Burger Club</text>
  <text x="112" y="62" font-family="Arial, sans-serif" font-size="15" fill="#d1d5db">Sydney pickup and delivery</text>
  <rect x="942" y="26" width="84" height="36" rx="6" fill="#ffffff"/>
  <text x="964" y="49" font-family="Arial, sans-serif" font-size="15" font-weight="700" fill="#111827">Log in</text>
  <rect x="1042" y="26" width="96" height="36" rx="6" fill="#f6c453"/>
  <text x="1064" y="49" font-family="Arial, sans-serif" font-size="15" font-weight="700" fill="#111827">Join now</text>
  <text x="64" y="150" font-family="Arial, sans-serif" font-size="42" font-weight="800" fill="#111827">Sydney burger ordering</text>
  <text x="64" y="184" font-family="Arial, sans-serif" font-size="18" fill="#4b5563">Live menu, validated cart totals, AUD checkout, and Stripe payments.</text>
  <g transform="translate(64 234)">
    <rect width="300" height="190" rx="8" fill="#ffffff" stroke="#e5e7eb"/>
    <rect x="18" y="18" width="264" height="72" rx="6" fill="#ffd166"/>
    <text x="18" y="124" font-family="Arial, sans-serif" font-size="22" font-weight="700" fill="#111827">Sydney Club Burger</text>
    <text x="18" y="152" font-family="Arial, sans-serif" font-size="15" fill="#6b7280">Double beef, lettuce, onion, cheese.</text>
    <text x="18" y="178" font-family="Arial, sans-serif" font-size="18" font-weight="700" fill="#111827">A$24.00</text>
  </g>
  <g transform="translate(388 234)">
    <rect width="300" height="190" rx="8" fill="#ffffff" stroke="#e5e7eb"/>
    <rect x="18" y="18" width="264" height="72" rx="6" fill="#ef476f"/>
    <text x="18" y="124" font-family="Arial, sans-serif" font-size="22" font-weight="700" fill="#111827">Spicy Chicken Burger</text>
    <text x="18" y="152" font-family="Arial, sans-serif" font-size="15" fill="#6b7280">Crispy chicken, chilli mayo, lettuce.</text>
    <text x="18" y="178" font-family="Arial, sans-serif" font-size="18" font-weight="700" fill="#111827">A$21.00</text>
  </g>
  <g transform="translate(712 234)">
    <rect width="300" height="190" rx="8" fill="#ffffff" stroke="#e5e7eb"/>
    <rect x="18" y="18" width="264" height="72" rx="6" fill="#06d6a0"/>
    <text x="18" y="124" font-family="Arial, sans-serif" font-size="22" font-weight="700" fill="#111827">Cheeseburger</text>
    <text x="18" y="152" font-family="Arial, sans-serif" font-size="15" fill="#6b7280">Beef patty, cheddar, relish, pickles.</text>
    <text x="18" y="178" font-family="Arial, sans-serif" font-size="18" font-weight="700" fill="#111827">A$12.00</text>
  </g>
  <rect x="64" y="480" width="1072" height="146" rx="8" fill="#111827"/>
  <text x="92" y="530" font-family="Arial, sans-serif" font-size="26" font-weight="800" fill="#ffffff">Cart</text>
  <text x="92" y="566" font-family="Arial, sans-serif" font-size="17" fill="#d1d5db">Server-side cart validation keeps checkout totals consistent with menu versioning.</text>
  <rect x="938" y="522" width="142" height="48" rx="6" fill="#f6c453"/>
  <text x="978" y="552" font-family="Arial, sans-serif" font-size="16" font-weight="800" fill="#111827">Buy</text>
</svg>
